<?xml version="1.0" ?>
<!DOCTYPE svg  PUBLIC '-//W3C//DTD SVG 1.1//EN'  'http://www.w3.org/Graphics/SVG/1.1/DTD/svg11.dtd'>
<!-- Uploaded to: SVG Repo, www.svgrepo.com, Generator: SVG Repo Mixer Tools -->
<svg fill="#000000" width="800px" height="800px" viewBox="0 0 512 512" version="1.1" xml:space="preserve" xmlns="http://www.w3.org/2000/svg" xmlns:xlink="http://www.w3.org/1999/xlink">
<g id="A_-_105_x2C__Document_x2C__file_x2C__gear_x2C__settings">
<g>
<path d="M328.114,264.744c-0.733-4.375-1.865-8.545-3.36-12.396c-0.52-1.338-0.107-2.86,1.016-3.754l16.725-13.309l-3.368-5.873    l-19.916,7.804c-1.327,0.519-2.837,0.125-3.737-0.979c-2.694-3.299-5.747-6.339-9.075-9.036c-1.112-0.9-1.511-2.418-0.987-3.75    l7.844-19.922l-5.881-3.399l-13.348,16.727c-0.895,1.121-2.412,1.533-3.751,1.011c-3.969-1.542-8.12-2.64-12.336-3.264    c-1.427-0.21-2.549-1.33-2.763-2.755l-3.191-21.188h-6.727l-3.199,21.188c-0.215,1.426-1.336,2.543-2.762,2.755    c-4.209,0.623-8.36,1.722-12.338,3.265c-1.336,0.519-2.855,0.108-3.75-1.013l-13.34-16.726l-5.879,3.399l7.842,19.922    c0.524,1.333,0.125,2.851-0.989,3.751c-3.311,2.678-6.363,5.718-9.073,9.035c-0.902,1.102-2.412,1.495-3.736,0.978l-19.917-7.805    l-3.375,5.876l16.691,13.308c1.121,0.895,1.532,2.415,1.012,3.752c-1.456,3.75-2.571,7.919-3.314,12.39    c-0.232,1.401-1.341,2.493-2.745,2.705l-21.152,3.199v6.8l21.14,3.121c1.41,0.207,2.523,1.302,2.757,2.706    c0.743,4.471,1.858,8.641,3.314,12.391c0.518,1.334,0.111,2.851-1.006,3.746l-16.701,13.393l3.374,5.875l19.912-7.877    c1.34-0.529,2.871-0.123,3.771,1.004c2.639,3.31,5.684,6.366,9.049,9.09c1.114,0.9,1.514,2.418,0.989,3.751l-7.842,19.921    l5.875,3.397l13.34-16.799c0.892-1.123,2.411-1.535,3.751-1.02c4.228,1.634,8.38,2.761,12.342,3.349    c1.426,0.211,2.547,1.328,2.762,2.754l3.199,21.188h6.727l3.191-21.188c0.214-1.427,1.336-2.545,2.763-2.755    c3.971-0.588,8.122-1.715,12.339-3.348c1.338-0.521,2.859-0.106,3.753,1.018l13.349,16.8l5.875-3.397l-7.844-19.921    c-0.523-1.332-0.125-2.849,0.987-3.749c3.382-2.742,6.427-5.8,9.052-9.09c0.898-1.129,2.43-1.536,3.77-1.006l19.912,7.876    l3.367-5.87l-16.736-13.395c-1.117-0.895-1.525-2.412-1.008-3.748c1.495-3.85,2.627-8.021,3.36-12.396    c0.236-1.403,1.349-2.494,2.755-2.701l21.096-3.12v-6.802l-21.107-3.198C329.456,267.231,328.35,266.143,328.114,264.744z     M268.621,311.406c-20.622,0-37.4-16.76-37.4-37.359c0-20.645,16.778-37.441,37.4-37.441s37.4,16.796,37.4,37.441    C306.021,294.646,289.243,311.406,268.621,311.406z"/>
<polygon points="143.32,62.417 99.203,106.532 144.66,105.191   "/>
<path d="M383.197,272.948c-0.127-0.341-0.199-0.708-0.207-1.093l-0.016-0.714c-0.01-0.373,0.045-0.733,0.152-1.07    c-0.131-0.331-0.209-0.688-0.225-1.062l-0.033-0.714c-0.018-0.374,0.027-0.735,0.125-1.074c-0.139-0.329-0.227-0.686-0.252-1.062    l-0.051-0.707c-0.027-0.375,0.009-0.741,0.1-1.085c-0.146-0.325-0.242-0.679-0.277-1.053l-0.068-0.704    c-0.036-0.374-0.009-0.74,0.072-1.086c-0.154-0.318-0.258-0.67-0.303-1.041l-0.086-0.709c-0.047-0.373-0.029-0.739,0.045-1.087    c-0.162-0.315-0.275-0.662-0.328-1.034l-0.104-0.706c-0.056-0.371-0.046-0.735,0.019-1.083c-0.17-0.312-0.293-0.658-0.356-1.029    l-0.122-0.704c-0.063-0.369-0.063-0.735-0.008-1.084c-0.178-0.308-0.309-0.65-0.38-1.019l-0.14-0.695    c-0.072-0.368-0.084-0.735-0.036-1.087c-0.186-0.304-0.325-0.644-0.406-1.011l-0.154-0.69c-0.083-0.366-0.103-0.732-0.064-1.085    c-0.192-0.299-0.341-0.634-0.431-1l-0.174-0.687c-0.092-0.364-0.12-0.73-0.09-1.084c-0.201-0.294-0.357-0.626-0.457-0.989    l-0.189-0.681c-0.102-0.362-0.139-0.726-0.119-1.081c-0.208-0.289-0.373-0.617-0.48-0.977l-0.208-0.681    c-0.11-0.358-0.157-0.721-0.144-1.075c-0.217-0.283-0.389-0.606-0.506-0.962l-0.225-0.676c-0.119-0.355-0.174-0.715-0.172-1.071    c-0.222-0.276-0.402-0.595-0.528-0.947l-0.243-0.672c-0.127-0.353-0.191-0.712-0.197-1.067c-0.23-0.273-0.42-0.588-0.555-0.939    l-0.259-0.664c-0.136-0.348-0.21-0.704-0.224-1.057c-0.232-0.263-0.427-0.567-0.569-0.91l-0.276-0.661    c-0.146-0.345-0.229-0.7-0.253-1.053c-0.239-0.259-0.442-0.56-0.594-0.9l-0.292-0.651c-0.154-0.34-0.244-0.693-0.277-1.045    c-0.247-0.252-0.457-0.549-0.617-0.886l-0.309-0.644c-0.162-0.337-0.262-0.688-0.303-1.039c-0.255-0.246-0.473-0.538-0.641-0.871    l-0.324-0.637c-0.17-0.332-0.278-0.679-0.33-1.029c-0.26-0.241-0.485-0.529-0.662-0.859l-0.338-0.623    c-0.18-0.329-0.297-0.675-0.355-1.023c-0.266-0.234-0.498-0.516-0.684-0.841l-0.352-0.613c-0.188-0.324-0.314-0.667-0.382-1.016    c-0.272-0.227-0.513-0.503-0.706-0.825l-0.37-0.609c-0.194-0.318-0.329-0.657-0.404-1.003c-0.276-0.22-0.522-0.488-0.724-0.803    l-0.388-0.604c-0.203-0.314-0.345-0.649-0.43-0.992c-0.284-0.214-0.536-0.478-0.746-0.789l-0.397-0.589    c-0.212-0.31-0.363-0.642-0.456-0.984c-0.288-0.206-0.548-0.463-0.764-0.768l-0.415-0.581c-0.219-0.304-0.377-0.632-0.479-0.972    c-0.295-0.199-0.562-0.452-0.787-0.754l-0.425-0.564c-0.227-0.298-0.394-0.624-0.504-0.961c-0.299-0.192-0.571-0.438-0.803-0.732    l-0.439-0.555c-0.234-0.293-0.41-0.615-0.529-0.95c-0.303-0.185-0.582-0.423-0.821-0.712l-0.456-0.546    c-0.241-0.287-0.424-0.604-0.551-0.936c-0.308-0.178-0.591-0.407-0.838-0.69l-0.467-0.535c-0.249-0.281-0.44-0.593-0.576-0.922    c-0.312-0.168-0.602-0.392-0.854-0.668l-0.484-0.526c-0.255-0.274-0.453-0.581-0.596-0.906c-0.316-0.161-0.611-0.377-0.87-0.646    l-0.497-0.514c-0.262-0.269-0.469-0.571-0.62-0.893c-0.319-0.154-0.62-0.362-0.886-0.626l-0.508-0.499    c-0.269-0.263-0.482-0.56-0.642-0.878c-0.324-0.146-0.63-0.346-0.902-0.603l-0.523-0.49c-0.274-0.255-0.495-0.547-0.661-0.86    c-0.328-0.138-0.639-0.333-0.918-0.583l-0.532-0.473c-0.281-0.249-0.509-0.535-0.684-0.844c-0.331-0.13-0.646-0.316-0.932-0.559    l-0.544-0.46c-0.288-0.243-0.523-0.523-0.706-0.829c-0.333-0.121-0.653-0.299-0.944-0.535l-0.559-0.449    c-0.292-0.234-0.533-0.509-0.723-0.808c-0.338-0.113-0.662-0.284-0.961-0.513l-0.565-0.434c-0.298-0.227-0.548-0.495-0.745-0.792    c-0.342-0.104-0.671-0.267-0.976-0.49l-0.573-0.417c-0.305-0.22-0.56-0.482-0.765-0.773c-0.343-0.096-0.677-0.25-0.985-0.465    l-0.583-0.402c-0.312-0.212-0.575-0.469-0.786-0.755c-0.346-0.087-0.682-0.233-0.996-0.44l-0.596-0.39    c-0.316-0.204-0.586-0.455-0.805-0.736c-0.346-0.079-0.686-0.215-1.004-0.414l-0.609-0.376c-0.32-0.197-0.594-0.439-0.819-0.714    c-0.349-0.07-0.69-0.197-1.013-0.387l-0.623-0.364c-0.324-0.188-0.604-0.424-0.836-0.692c-0.351-0.062-0.697-0.182-1.026-0.364    l-0.624-0.344c-0.33-0.18-0.617-0.409-0.856-0.673c-0.352-0.052-0.701-0.163-1.033-0.337l-0.636-0.331    c-0.334-0.172-0.626-0.393-0.871-0.65c-0.355-0.044-0.707-0.146-1.045-0.312l-0.639-0.312c-0.341-0.164-0.639-0.378-0.893-0.631    c-0.352-0.035-0.704-0.127-1.043-0.283l-0.658-0.299c-0.343-0.155-0.646-0.362-0.904-0.607c-0.353-0.026-0.707-0.11-1.051-0.256    l-0.664-0.283c-0.346-0.147-0.656-0.346-0.919-0.585c-0.356-0.016-0.715-0.092-1.064-0.232l-0.663-0.263    c-0.352-0.138-0.665-0.33-0.936-0.561c-0.355-0.008-0.718-0.075-1.07-0.206l-0.672-0.248c-0.354-0.128-0.672-0.312-0.947-0.536    c-0.351-0.01-0.719-0.057-1.076-0.179l-0.677-0.23c-0.356-0.12-0.68-0.295-0.962-0.513c-0.357,0.009-0.721-0.039-1.08-0.152    l-0.682-0.213c-0.359-0.11-0.686-0.276-0.972-0.486c-0.354,0.021-0.72-0.021-1.081-0.125l-0.686-0.195    c-0.361-0.102-0.69-0.259-0.982-0.461c-0.352,0.026-0.719-0.003-1.082-0.098l-0.69-0.179c-0.362-0.092-0.694-0.242-0.991-0.436    c-0.354,0.038-0.719,0.016-1.085-0.07l-0.696-0.161c-0.365-0.083-0.702-0.224-1.002-0.411c-0.354,0.044-0.72,0.033-1.09-0.044    l-0.691-0.142c-0.369-0.073-0.711-0.207-1.018-0.387c-0.352,0.055-0.719,0.052-1.09-0.016l-0.697-0.125    c-0.369-0.065-0.714-0.189-1.025-0.361c-0.35,0.062-0.717,0.069-1.084,0.012l-0.705-0.108c-0.371-0.056-0.719-0.171-1.034-0.336    c-0.348,0.072-0.712,0.087-1.085,0.04l-0.707-0.091c-0.373-0.046-0.723-0.153-1.041-0.309c-0.346,0.081-0.712,0.104-1.086,0.065    l-0.711-0.072c-0.372-0.037-0.724-0.135-1.045-0.283c-0.345,0.089-0.711,0.123-1.084,0.092l-0.707-0.055    c-0.375-0.028-0.73-0.117-1.058-0.257c-0.343,0.097-0.706,0.138-1.083,0.12l-0.709-0.038c-0.375-0.019-0.732-0.099-1.063-0.231    c-0.338,0.105-0.697,0.154-1.073,0.146l-0.716-0.02c-0.375-0.009-0.733-0.081-1.066-0.205c-0.337,0.114-0.699,0.176-1.072,0.172    l-0.715-0.002c-0.391,0-0.768-0.069-1.119-0.194c-0.347,0.132-0.72,0.208-1.111,0.215l-0.714,0.016    c-0.377,0.007-0.733-0.045-1.069-0.151c-0.331,0.13-0.688,0.208-1.063,0.224l-0.707,0.034c-0.38,0.019-0.741-0.026-1.082-0.125    c-0.329,0.139-0.684,0.226-1.061,0.252l-0.707,0.05c-0.373,0.028-0.738-0.007-1.082-0.099c-0.324,0.147-0.676,0.243-1.049,0.278    l-0.712,0.069c-0.372,0.038-0.736,0.011-1.083-0.071c-0.32,0.154-0.67,0.26-1.043,0.304l-0.709,0.086    c-0.372,0.047-0.737,0.027-1.084-0.045c-0.315,0.163-0.664,0.276-1.036,0.33l-0.707,0.104c-0.371,0.055-0.736,0.045-1.083-0.019    c-0.312,0.171-0.658,0.293-1.028,0.356l-0.698,0.121c-0.371,0.064-0.738,0.065-1.088,0.009c-0.309,0.18-0.652,0.311-1.021,0.382    l-0.696,0.138c-0.367,0.074-0.733,0.084-1.085,0.037c-0.303,0.186-0.641,0.326-1.006,0.406l-0.697,0.157    c-0.366,0.083-0.731,0.103-1.083,0.064c-0.297,0.193-0.631,0.342-0.996,0.431l-0.693,0.175c-0.364,0.093-0.729,0.119-1.083,0.091    c-0.292,0.2-0.623,0.356-0.983,0.456l-0.688,0.191c-0.36,0.102-0.726,0.139-1.08,0.119c-0.289,0.209-0.618,0.375-0.979,0.482    l-0.676,0.207c-0.358,0.111-0.721,0.157-1.077,0.146c-0.284,0.216-0.606,0.39-0.964,0.507l-0.67,0.223    c-0.357,0.12-0.717,0.166-1.075,0.174c-0.276,0.222-0.594,0.402-0.947,0.528l-0.673,0.243c-0.351,0.129-0.711,0.193-1.065,0.2    c-0.273,0.229-0.587,0.419-0.938,0.555l-0.66,0.257c-0.349,0.137-0.706,0.21-1.06,0.226c-0.263,0.233-0.567,0.428-0.909,0.571    l-0.663,0.278c-0.344,0.145-0.698,0.227-1.05,0.251c-0.258,0.241-0.56,0.443-0.9,0.595l-0.654,0.294    c-0.339,0.153-0.691,0.243-1.042,0.277c-0.253,0.247-0.55,0.458-0.887,0.618l-0.639,0.307c-0.338,0.163-0.689,0.263-1.042,0.306    c-0.247,0.254-0.539,0.472-0.873,0.641l-0.629,0.321c-0.334,0.172-0.683,0.281-1.034,0.333c-0.241,0.26-0.527,0.485-0.856,0.662    l-0.626,0.34c-0.328,0.179-0.672,0.296-1.021,0.355c-0.234,0.267-0.517,0.5-0.842,0.686l-0.615,0.354    c-0.323,0.187-0.666,0.313-1.013,0.381c-0.228,0.272-0.503,0.512-0.824,0.707l-0.608,0.37c-0.318,0.195-0.657,0.329-1.003,0.406    c-0.221,0.278-0.491,0.525-0.807,0.727l-0.594,0.382c-0.314,0.204-0.652,0.348-0.997,0.433c-0.214,0.285-0.478,0.538-0.79,0.748    l-0.585,0.397c-0.308,0.211-0.641,0.362-0.983,0.457c-0.206,0.288-0.462,0.548-0.768,0.765l-0.581,0.415    c-0.304,0.219-0.632,0.379-0.973,0.48c-0.199,0.294-0.449,0.56-0.748,0.784l-0.567,0.428c-0.299,0.227-0.624,0.395-0.962,0.506    c-0.192,0.299-0.437,0.572-0.732,0.805l-0.556,0.441c-0.293,0.234-0.613,0.41-0.948,0.529c-0.184,0.302-0.419,0.58-0.707,0.818    l-0.552,0.46c-0.286,0.24-0.602,0.423-0.933,0.55c-0.176,0.309-0.406,0.592-0.689,0.838l-0.537,0.472    c-0.28,0.248-0.592,0.438-0.919,0.574c-0.169,0.313-0.393,0.603-0.669,0.856l-0.522,0.482c-0.276,0.255-0.582,0.454-0.907,0.598    c-0.162,0.317-0.379,0.614-0.65,0.875l-0.507,0.493c-0.269,0.262-0.571,0.468-0.893,0.62c-0.153,0.32-0.361,0.621-0.624,0.887    l-0.501,0.511c-0.262,0.268-0.558,0.481-0.876,0.641c-0.145,0.323-0.345,0.628-0.601,0.9l-0.489,0.523    c-0.255,0.276-0.547,0.497-0.86,0.664c-0.137,0.327-0.33,0.636-0.578,0.915l-0.476,0.537c-0.249,0.281-0.534,0.51-0.845,0.685    c-0.129,0.331-0.313,0.646-0.557,0.932l-0.462,0.547c-0.241,0.287-0.521,0.521-0.825,0.704c-0.122,0.335-0.299,0.655-0.536,0.947    l-0.447,0.556c-0.234,0.293-0.508,0.535-0.808,0.725c-0.112,0.338-0.283,0.663-0.512,0.96l-0.432,0.566    c-0.228,0.299-0.496,0.549-0.792,0.747c-0.104,0.339-0.266,0.667-0.486,0.97l-0.421,0.581c-0.22,0.304-0.481,0.56-0.771,0.764    c-0.097,0.344-0.251,0.679-0.467,0.989l-0.402,0.583c-0.212,0.311-0.468,0.573-0.754,0.784c-0.087,0.343-0.23,0.678-0.436,0.99    l-0.394,0.605c-0.204,0.314-0.453,0.582-0.732,0.801c-0.079,0.348-0.216,0.688-0.414,1.007l-0.375,0.608    c-0.197,0.32-0.438,0.595-0.714,0.82c-0.07,0.35-0.199,0.694-0.389,1.019l-0.359,0.616c-0.188,0.325-0.423,0.605-0.692,0.838    c-0.062,0.351-0.182,0.697-0.362,1.026l-0.347,0.629c-0.179,0.33-0.408,0.615-0.67,0.854c-0.053,0.352-0.163,0.701-0.336,1.033    l-0.33,0.636c-0.172,0.335-0.394,0.628-0.651,0.874c-0.044,0.354-0.146,0.708-0.313,1.046l-0.311,0.639    c-0.163,0.34-0.377,0.637-0.629,0.89c-0.034,0.353-0.127,0.707-0.282,1.047l-0.299,0.655c-0.154,0.343-0.361,0.646-0.606,0.905    c-0.026,0.353-0.109,0.709-0.256,1.053l-0.281,0.66c-0.146,0.347-0.345,0.656-0.584,0.92c-0.017,0.356-0.092,0.716-0.231,1.065    l-0.264,0.666c-0.138,0.351-0.33,0.664-0.561,0.935c-0.007,0.357-0.074,0.718-0.205,1.072l-0.245,0.668    c-0.129,0.355-0.313,0.673-0.538,0.951c0.001,0.356-0.056,0.718-0.178,1.074l-0.23,0.68c-0.12,0.356-0.294,0.678-0.512,0.96    c0.011,0.358-0.038,0.724-0.152,1.085l-0.212,0.68c-0.11,0.358-0.276,0.684-0.485,0.97c0.019,0.356-0.021,0.721-0.125,1.083    l-0.193,0.679c-0.101,0.362-0.259,0.693-0.461,0.985c0.027,0.354-0.003,0.72-0.098,1.084l-0.176,0.686    c-0.092,0.365-0.243,0.699-0.438,0.997c0.037,0.354,0.016,0.721-0.069,1.087l-0.159,0.69c-0.083,0.367-0.224,0.705-0.412,1.006    c0.046,0.354,0.034,0.72-0.043,1.088l-0.142,0.694c-0.074,0.368-0.207,0.709-0.386,1.016c0.054,0.35,0.051,0.716-0.016,1.084    l-0.125,0.703c-0.065,0.37-0.188,0.714-0.361,1.025c0.064,0.352,0.07,0.719,0.012,1.092l-0.107,0.7    c-0.056,0.37-0.17,0.717-0.335,1.031c0.072,0.349,0.088,0.714,0.039,1.087l-0.089,0.708c-0.047,0.372-0.153,0.722-0.31,1.041    c0.081,0.347,0.105,0.712,0.066,1.086l-0.071,0.704c-0.037,0.374-0.135,0.727-0.283,1.051c0.089,0.345,0.123,0.71,0.092,1.085    l-0.054,0.707c-0.027,0.375-0.117,0.73-0.257,1.056c0.097,0.343,0.14,0.705,0.12,1.078l-0.036,0.715    c-0.019,0.375-0.099,0.732-0.231,1.062c0.106,0.34,0.157,0.701,0.146,1.075l-0.019,0.716c-0.009,0.375-0.082,0.734-0.205,1.067    c0.113,0.337,0.175,0.697,0.172,1.072l-0.001,0.663c0,0.019,0,0.038,0,0.052c0,0.375-0.063,0.735-0.179,1.071    c0.123,0.333,0.192,0.692,0.2,1.067l0.016,0.714c0.009,0.373-0.045,0.733-0.152,1.071c0.13,0.33,0.208,0.687,0.224,1.061    l0.033,0.714c0.019,0.374-0.026,0.736-0.125,1.076c0.139,0.328,0.227,0.685,0.252,1.06l0.05,0.707    c0.027,0.375-0.008,0.741-0.1,1.085c0.147,0.324,0.243,0.678,0.278,1.053l0.068,0.704c0.037,0.374,0.01,0.74-0.072,1.086    c0.154,0.319,0.259,0.67,0.303,1.041l0.086,0.71c0.046,0.372,0.028,0.738-0.046,1.086c0.164,0.316,0.277,0.666,0.33,1.04    l0.103,0.7c0.055,0.371,0.047,0.736-0.018,1.086c0.17,0.311,0.293,0.657,0.355,1.026l0.122,0.705    c0.064,0.367,0.064,0.733,0.008,1.083c0.179,0.308,0.31,0.649,0.381,1.019l0.138,0.701c0.074,0.366,0.083,0.731,0.036,1.081    c0.187,0.304,0.326,0.643,0.407,1.01l0.155,0.692c0.084,0.365,0.103,0.731,0.064,1.086c0.194,0.299,0.341,0.634,0.431,0.999    l0.173,0.688c0.092,0.363,0.121,0.729,0.09,1.082c0.202,0.294,0.359,0.627,0.458,0.99l0.189,0.681    c0.102,0.362,0.139,0.727,0.118,1.082c0.209,0.289,0.374,0.616,0.481,0.976l0.206,0.677c0.112,0.358,0.158,0.723,0.146,1.08    c0.215,0.282,0.388,0.605,0.505,0.963l0.225,0.675c0.119,0.355,0.174,0.717,0.171,1.071c0.222,0.276,0.403,0.595,0.529,0.947    l0.242,0.672c0.129,0.353,0.193,0.712,0.2,1.067c0.229,0.272,0.418,0.587,0.553,0.938l0.256,0.657    c0.137,0.35,0.21,0.706,0.226,1.062c0.233,0.263,0.427,0.568,0.571,0.91l0.276,0.662c0.146,0.344,0.228,0.699,0.252,1.053    c0.24,0.257,0.441,0.556,0.592,0.895l0.295,0.656c0.154,0.341,0.244,0.692,0.277,1.045c0.247,0.252,0.458,0.549,0.618,0.885    l0.308,0.645c0.162,0.337,0.262,0.687,0.304,1.038c0.253,0.246,0.471,0.538,0.64,0.871l0.325,0.637    c0.17,0.332,0.278,0.679,0.329,1.029c0.261,0.241,0.487,0.529,0.665,0.859l0.336,0.622c0.179,0.328,0.296,0.673,0.356,1.021    c0.266,0.234,0.499,0.517,0.684,0.842l0.354,0.614c0.188,0.325,0.314,0.668,0.383,1.017c0.271,0.228,0.51,0.502,0.704,0.822    l0.37,0.607c0.195,0.319,0.329,0.659,0.406,1.005c0.277,0.22,0.522,0.488,0.724,0.804l0.386,0.601    c0.204,0.314,0.347,0.651,0.432,0.995c0.284,0.214,0.537,0.478,0.747,0.789l0.396,0.585c0.212,0.31,0.363,0.643,0.458,0.985    c0.288,0.207,0.548,0.463,0.766,0.769l0.413,0.578c0.22,0.304,0.379,0.634,0.481,0.974c0.293,0.199,0.558,0.449,0.782,0.748    l0.43,0.571c0.226,0.298,0.394,0.623,0.503,0.96c0.299,0.192,0.571,0.436,0.804,0.73l0.441,0.556    c0.234,0.294,0.41,0.615,0.529,0.95c0.302,0.183,0.579,0.419,0.817,0.706l0.461,0.552c0.241,0.287,0.424,0.604,0.551,0.934    c0.307,0.177,0.592,0.407,0.838,0.691l0.468,0.534c0.249,0.281,0.439,0.593,0.575,0.921c0.311,0.168,0.601,0.392,0.853,0.666    l0.485,0.525c0.255,0.275,0.455,0.583,0.598,0.908c0.316,0.16,0.611,0.377,0.872,0.646l0.495,0.511    c0.262,0.269,0.47,0.572,0.621,0.894c0.321,0.154,0.622,0.363,0.889,0.627l0.508,0.499c0.269,0.262,0.481,0.559,0.641,0.875    c0.323,0.146,0.628,0.346,0.901,0.603l0.523,0.488c0.275,0.256,0.497,0.547,0.664,0.86c0.328,0.138,0.638,0.331,0.918,0.582    l0.532,0.472c0.282,0.249,0.511,0.537,0.686,0.846c0.331,0.129,0.646,0.315,0.932,0.558l0.546,0.462    c0.287,0.242,0.522,0.521,0.705,0.827c0.335,0.121,0.654,0.299,0.946,0.535l0.555,0.446c0.293,0.234,0.536,0.509,0.726,0.809    c0.337,0.114,0.662,0.284,0.96,0.513l0.565,0.432c0.3,0.228,0.55,0.496,0.748,0.793c0.338,0.104,0.667,0.266,0.969,0.486    l0.58,0.421c0.304,0.219,0.559,0.48,0.764,0.771c0.344,0.096,0.678,0.25,0.988,0.466l0.584,0.401    c0.31,0.212,0.572,0.469,0.784,0.754c0.345,0.086,0.681,0.232,0.996,0.438l0.6,0.392c0.314,0.204,0.583,0.453,0.802,0.733    c0.347,0.078,0.687,0.215,1.005,0.413l0.609,0.376c0.32,0.196,0.595,0.438,0.821,0.713c0.35,0.07,0.694,0.199,1.019,0.39    l0.615,0.358c0.325,0.188,0.606,0.424,0.839,0.692c0.349,0.062,0.695,0.181,1.022,0.362l0.633,0.348    c0.329,0.179,0.615,0.408,0.854,0.671c0.353,0.052,0.701,0.162,1.034,0.335l0.636,0.33c0.334,0.172,0.626,0.394,0.872,0.649    c0.355,0.044,0.708,0.146,1.047,0.313l0.639,0.311c0.339,0.163,0.637,0.377,0.889,0.629c0.354,0.034,0.707,0.127,1.047,0.283    l0.655,0.298c0.343,0.155,0.646,0.361,0.905,0.606c0.354,0.026,0.709,0.109,1.054,0.258l0.66,0.279    c0.347,0.146,0.656,0.347,0.922,0.584c0.356,0.017,0.715,0.093,1.064,0.232l0.666,0.264c0.35,0.138,0.663,0.328,0.934,0.561    c0.356,0.007,0.719,0.073,1.073,0.205l0.667,0.245c0.355,0.129,0.674,0.313,0.951,0.538c0.358,0.009,0.719,0.055,1.075,0.178    l0.68,0.23c0.356,0.119,0.678,0.295,0.96,0.512c0.358-0.011,0.725,0.037,1.085,0.152l0.68,0.212    c0.357,0.109,0.683,0.275,0.969,0.484c0.357-0.019,0.721,0.021,1.084,0.126l0.68,0.191c0.361,0.102,0.692,0.26,0.984,0.462    c0.356-0.026,0.722,0.002,1.086,0.097l0.686,0.177c0.364,0.093,0.699,0.241,0.996,0.437c0.354-0.037,0.722-0.017,1.087,0.069    l0.69,0.159c0.367,0.083,0.705,0.226,1.007,0.412c0.351-0.046,0.717-0.034,1.084,0.042l0.698,0.143    c0.368,0.073,0.709,0.206,1.015,0.387c0.351-0.057,0.717-0.056,1.086,0.015l0.702,0.124c0.37,0.064,0.715,0.188,1.026,0.36    c0.35-0.062,0.716-0.069,1.086-0.012l0.705,0.107c0.371,0.056,0.717,0.171,1.032,0.335c0.349-0.071,0.713-0.09,1.087-0.04    l0.708,0.091c0.372,0.046,0.721,0.152,1.04,0.308c0.347-0.08,0.713-0.106,1.086-0.065l0.705,0.071    c0.374,0.036,0.728,0.135,1.051,0.283c0.346-0.09,0.713-0.122,1.085-0.093l0.707,0.055c0.375,0.027,0.73,0.116,1.056,0.256    c0.341-0.097,0.706-0.144,1.079-0.12l0.715,0.038c0.374,0.018,0.732,0.098,1.062,0.23c0.308-0.097,0.636-0.148,0.976-0.148    c0.033,0,0.065,0,0.1,0.002l0.715,0.02c0.375,0.009,0.734,0.081,1.066,0.205c0.338-0.114,0.697-0.149,1.072-0.173l0.674,0.001    c0.035,0,0.07,0,0.105,0.002c0.363,0,0.711,0.059,1.034,0.168c0.325-0.116,0.677-0.183,1.04-0.189l0.715-0.016    c0.379-0.005,0.733,0.045,1.07,0.151c0.33-0.131,0.687-0.208,1.062-0.224l0.714-0.033c0.369-0.021,0.736,0.025,1.076,0.125    c0.328-0.139,0.685-0.226,1.06-0.251l0.713-0.052c0.372-0.027,0.737,0.01,1.079,0.101c0.324-0.146,0.678-0.243,1.053-0.277    l0.704-0.068c0.376-0.036,0.739-0.011,1.087,0.072c0.318-0.153,0.67-0.259,1.041-0.303l0.709-0.086    c0.371-0.046,0.736-0.027,1.086,0.046c0.314-0.163,0.662-0.276,1.033-0.33l0.707-0.103c0.371-0.056,0.737-0.047,1.086,0.019    c0.312-0.17,0.656-0.293,1.025-0.354l0.705-0.121c0.368-0.065,0.734-0.066,1.084-0.009c0.307-0.178,0.649-0.31,1.02-0.381    l0.701-0.139c0.365-0.073,0.73-0.083,1.08-0.035c0.303-0.187,0.644-0.326,1.012-0.407l0.695-0.156    c0.364-0.082,0.729-0.101,1.082-0.062c0.299-0.193,0.634-0.342,0.999-0.432l0.687-0.172c0.363-0.093,0.73-0.12,1.083-0.092    c0.295-0.201,0.626-0.356,0.989-0.456l0.687-0.189c0.36-0.102,0.722-0.138,1.076-0.117c0.288-0.209,0.616-0.373,0.977-0.481    l0.681-0.209c0.359-0.109,0.721-0.158,1.075-0.144c0.284-0.217,0.608-0.389,0.968-0.506l0.67-0.224    c0.355-0.118,0.686-0.174,1.072-0.172c0.278-0.223,0.598-0.403,0.953-0.529l0.666-0.24c0.352-0.129,0.713-0.193,1.068-0.198    c0.271-0.23,0.587-0.42,0.938-0.554l0.663-0.259c0.349-0.136,0.706-0.209,1.062-0.224c0.264-0.236,0.573-0.432,0.919-0.575    l0.655-0.274c0.344-0.146,0.701-0.229,1.055-0.252c0.258-0.24,0.56-0.442,0.899-0.594l0.65-0.292    c0.341-0.154,0.694-0.244,1.046-0.277c0.252-0.246,0.549-0.456,0.885-0.616l0.644-0.309c0.336-0.162,0.688-0.263,1.038-0.304    c0.248-0.255,0.541-0.473,0.877-0.643l0.632-0.322c0.331-0.17,0.679-0.278,1.029-0.328c0.241-0.26,0.528-0.486,0.859-0.663    l0.624-0.338c0.328-0.179,0.672-0.295,1.021-0.354c0.234-0.267,0.516-0.5,0.842-0.686l0.613-0.352    c0.324-0.188,0.668-0.313,1.016-0.381c0.229-0.274,0.506-0.514,0.826-0.708l0.607-0.368c0.318-0.193,0.658-0.328,1.003-0.404    c0.22-0.276,0.488-0.522,0.802-0.723l0.605-0.388c0.313-0.202,0.648-0.345,0.992-0.43c0.213-0.283,0.478-0.537,0.789-0.747    l0.584-0.396c0.311-0.213,0.644-0.364,0.988-0.458c0.205-0.288,0.463-0.547,0.767-0.764l0.582-0.416    c0.304-0.218,0.632-0.376,0.97-0.479c0.199-0.293,0.45-0.559,0.75-0.783l0.57-0.429c0.298-0.227,0.621-0.394,0.959-0.503    c0.193-0.3,0.438-0.573,0.733-0.806l0.555-0.438c0.293-0.234,0.614-0.41,0.95-0.529c0.185-0.304,0.422-0.582,0.711-0.822    l0.546-0.454c0.288-0.241,0.604-0.424,0.936-0.551c0.178-0.309,0.408-0.595,0.694-0.842l0.53-0.466    c0.282-0.248,0.593-0.439,0.923-0.575c0.168-0.312,0.391-0.601,0.668-0.854l0.525-0.484c0.275-0.255,0.582-0.453,0.906-0.597    c0.162-0.316,0.378-0.612,0.648-0.873l0.512-0.494c0.269-0.262,0.57-0.468,0.891-0.619c0.156-0.321,0.364-0.624,0.63-0.891    l0.495-0.505c0.264-0.268,0.561-0.481,0.879-0.642c0.145-0.321,0.344-0.627,0.601-0.898l0.492-0.527    c0.255-0.273,0.546-0.494,0.858-0.66c0.138-0.328,0.332-0.638,0.58-0.917l0.477-0.534c0.248-0.282,0.534-0.509,0.844-0.685    c0.129-0.332,0.315-0.646,0.56-0.933l0.46-0.544c0.241-0.287,0.521-0.522,0.826-0.705c0.123-0.335,0.301-0.655,0.539-0.948    l0.443-0.552c0.234-0.294,0.51-0.536,0.811-0.726c0.112-0.337,0.281-0.661,0.51-0.959l0.436-0.569    c0.228-0.299,0.496-0.547,0.791-0.743c0.104-0.341,0.267-0.67,0.488-0.974l0.419-0.577c0.22-0.305,0.481-0.56,0.772-0.765    c0.098-0.343,0.252-0.678,0.465-0.986l0.403-0.584c0.212-0.311,0.469-0.573,0.754-0.785c0.088-0.345,0.233-0.683,0.44-0.997    l0.389-0.596c0.205-0.315,0.454-0.584,0.734-0.803c0.078-0.346,0.215-0.684,0.412-1.002l0.379-0.613    c0.195-0.32,0.438-0.595,0.713-0.819c0.07-0.348,0.197-0.69,0.387-1.015l0.36-0.618c0.188-0.325,0.425-0.605,0.694-0.838    c0.061-0.35,0.181-0.696,0.361-1.025l0.346-0.629c0.182-0.329,0.41-0.615,0.672-0.854c0.054-0.354,0.165-0.704,0.34-1.038    l0.328-0.632c0.172-0.335,0.393-0.626,0.65-0.872c0.044-0.354,0.146-0.708,0.313-1.046l0.312-0.639    c0.163-0.339,0.377-0.638,0.628-0.89c0.035-0.354,0.128-0.71,0.285-1.051l0.297-0.652c0.155-0.343,0.362-0.646,0.606-0.903    c0.026-0.355,0.11-0.712,0.259-1.058l0.282-0.66c0.146-0.345,0.344-0.653,0.582-0.918c0.017-0.354,0.091-0.714,0.231-1.063    l0.265-0.667c0.138-0.35,0.327-0.662,0.56-0.934c0.008-0.356,0.073-0.718,0.205-1.071l0.248-0.673    c0.129-0.354,0.313-0.671,0.537-0.946c-0.002-0.356,0.055-0.72,0.178-1.074l0.229-0.68c0.12-0.356,0.296-0.679,0.513-0.96    c-0.01-0.357,0.037-0.722,0.15-1.08l0.214-0.685c0.11-0.358,0.276-0.685,0.485-0.97c-0.019-0.357,0.021-0.722,0.125-1.084    l0.193-0.679c0.102-0.362,0.259-0.693,0.462-0.985c-0.028-0.354,0.002-0.721,0.097-1.085l0.176-0.686    c0.093-0.365,0.242-0.699,0.438-0.996c-0.037-0.354-0.016-0.722,0.07-1.088l0.158-0.689c0.084-0.366,0.226-0.705,0.412-1.007    c-0.045-0.354-0.033-0.721,0.044-1.09l0.142-0.692c0.074-0.368,0.206-0.71,0.386-1.017c-0.054-0.351-0.052-0.715,0.016-1.084    l0.125-0.702c0.064-0.369,0.188-0.714,0.36-1.024c-0.063-0.352-0.07-0.721-0.012-1.093l0.107-0.699    c0.055-0.372,0.17-0.718,0.335-1.032c-0.072-0.349-0.088-0.715-0.04-1.088l0.09-0.708c0.047-0.371,0.153-0.721,0.309-1.039    c-0.08-0.347-0.105-0.712-0.066-1.086l0.072-0.704c0.037-0.375,0.135-0.727,0.283-1.051c-0.09-0.344-0.124-0.71-0.094-1.086    l0.055-0.707c0.027-0.374,0.116-0.729,0.258-1.057c-0.098-0.341-0.142-0.704-0.121-1.078l0.038-0.714    c0.018-0.374,0.099-0.731,0.23-1.062c-0.106-0.341-0.159-0.705-0.146-1.082l0.019-0.708c0.01-0.375,0.082-0.734,0.205-1.067    c-0.113-0.337-0.175-0.698-0.172-1.073l0.002-0.661C383.012,273.662,383.077,273.292,383.197,272.948z M358.525,280.273    c0,1.627-1.191,3.007-2.8,3.244l-21.577,3.191c-0.629,3.131-1.447,6.16-2.445,9.052l17.088,13.676    c1.262,1.01,1.6,2.789,0.795,4.192l-6.178,10.77c-0.811,1.413-2.537,2.016-4.051,1.419l-20.34-8.046    c-2.027,2.352-4.25,4.581-6.64,6.661l8.015,20.355c0.595,1.51-0.006,3.229-1.41,4.04l-10.771,6.228    c-1.407,0.813-3.198,0.475-4.21-0.8l-13.631-17.158c-3.063,1.07-6.096,1.897-9.063,2.47l-3.26,21.634    c-0.241,1.604-1.619,2.791-3.242,2.791h-12.371c-1.623,0-3.002-1.187-3.244-2.79l-3.265-21.636    c-2.963-0.572-5.996-1.398-9.061-2.469l-13.625,17.158c-1.011,1.273-2.803,1.612-4.21,0.8l-10.77-6.228    c-1.405-0.812-2.005-2.53-1.41-4.04l8.013-20.354c-2.383-2.073-4.604-4.303-6.64-6.663l-20.338,8.046    c-1.514,0.597-3.239-0.004-4.05-1.417l-6.187-10.77c-0.804-1.401-0.468-3.182,0.793-4.192l17.057-13.678    c-0.977-2.85-1.784-5.879-2.411-9.052l-21.614-3.191c-1.609-0.236-2.801-1.617-2.801-3.244V267.82c0-1.622,1.186-3,2.789-3.242    l21.625-3.271c0.627-3.173,1.434-6.203,2.411-9.053l-17.048-13.592c-1.267-1.01-1.606-2.793-0.8-4.198l6.187-10.771    c0.809-1.409,2.526-2.014,4.041-1.42l20.366,7.98c2.057-2.347,4.273-4.554,6.621-6.595l-8.012-20.354    c-0.595-1.51,0.005-3.229,1.41-4.041l10.77-6.226c1.406-0.812,3.194-0.475,4.206,0.794l13.627,17.087    c2.959-1.02,5.993-1.824,9.064-2.4l3.264-21.627c0.242-1.604,1.621-2.79,3.244-2.79h12.371c1.623,0,3.001,1.186,3.242,2.791    l3.258,21.626c3.075,0.576,6.109,1.379,9.066,2.399l13.634-17.087c1.013-1.268,2.802-1.604,4.205-0.793l10.771,6.226    c1.404,0.813,2.005,2.531,1.41,4.041l-8.014,20.355c2.354,2.048,4.57,4.255,6.621,6.593l20.367-7.98    c1.51-0.595,3.232,0.012,4.041,1.422l6.178,10.77c0.807,1.406,0.465,3.189-0.803,4.199l-17.078,13.591    c0.998,2.892,1.816,5.921,2.445,9.052l21.586,3.271c1.604,0.243,2.789,1.621,2.789,3.242V280.273z"/>
<path d="M268.621,243.165c-17.005,0-30.84,13.854-30.84,30.882c0,16.982,13.835,30.799,30.84,30.799    c17.006,0,30.84-13.816,30.84-30.799C299.461,257.02,285.627,243.165,268.621,243.165z"/>
<polygon points="365.256,86.162 365.256,56.711 149.707,56.791 150.627,86.162   "/>
<path d="M474.42,287.857c0.049-0.095,0.093-0.19,0.133-0.289c0.041-0.101,0.078-0.201,0.108-0.305    c0.023-0.079,0.046-0.156,0.063-0.237c0.008-0.032,0.012-0.064,0.018-0.097c0.018-0.095,0.03-0.187,0.039-0.282    c0.008-0.078,0.016-0.155,0.018-0.234c0-0.027,0.008-0.053,0.008-0.081c0-0.025-0.007-0.05-0.008-0.075    c-0.002-0.077-0.009-0.154-0.016-0.231c-0.01-0.095-0.022-0.189-0.04-0.283c-0.007-0.033-0.01-0.067-0.017-0.1    c-0.018-0.079-0.04-0.155-0.063-0.234c-0.029-0.102-0.065-0.2-0.105-0.3c-0.041-0.099-0.084-0.195-0.135-0.292    c-0.049-0.093-0.103-0.184-0.161-0.273c-0.062-0.094-0.127-0.183-0.198-0.271c-0.035-0.042-0.06-0.09-0.096-0.132    c-0.04-0.044-0.088-0.075-0.129-0.115c-0.039-0.041-0.069-0.087-0.112-0.126l-12.745-11.529c-1.344-1.216-3.416-1.111-4.633,0.232    c-1.215,1.343-1.11,3.417,0.232,4.632l6.432,5.818h-54.379V92.722h-40.1H150.841l0.479,15.549c0.006,0.193-0.011,0.385-0.04,0.574    c-0.002,0.023-0.001,0.048-0.004,0.07c-0.018,0.112-0.058,0.219-0.089,0.328c-0.026,0.097-0.043,0.197-0.079,0.291    c-0.014,0.037-0.037,0.069-0.051,0.104c-0.15,0.358-0.356,0.693-0.627,0.981c0,0-0.001,0-0.001,0.001    c-0.037,0.04-0.082,0.068-0.121,0.105c-0.586,0.563-1.354,0.901-2.17,0.925l-19.532,0.579v170.824h-6.56V112.42l-27.725,0.819    v169.813H40.639c-1.904,0-3.447,1.469-3.447,3.279c0,1.812,1.543,3.28,3.447,3.28h53.683v141.358h27.725V289.612h6.56V434.25    v21.039h280.028v-32.145H203.366c-1.812,0-3.28-1.469-3.28-3.28c0-1.811,1.468-3.279,3.28-3.279h205.269V289.612h54.33    l-6.373,5.722c-1.348,1.21-1.46,3.284-0.25,4.633c0.648,0.721,1.543,1.088,2.441,1.088c0.781,0,1.564-0.277,2.189-0.839    l12.746-11.443c0.045-0.04,0.077-0.09,0.119-0.132c0.039-0.039,0.084-0.067,0.122-0.107c0.038-0.042,0.062-0.089,0.097-0.132    c0.072-0.087,0.138-0.177,0.199-0.27C474.314,288.042,474.37,287.951,474.42,287.857z M389.569,274.131v0.616    c-0.003,0.396-0.075,0.776-0.207,1.127c0.12,0.354,0.183,0.736,0.172,1.134l-0.021,0.758c-0.012,0.395-0.095,0.771-0.232,1.116    c0.111,0.358,0.164,0.741,0.145,1.138l-0.039,0.751c-0.022,0.396-0.113,0.772-0.262,1.118c0.103,0.359,0.146,0.743,0.117,1.139    l-0.059,0.756c-0.031,0.394-0.133,0.767-0.288,1.105c0.093,0.362,0.126,0.747,0.088,1.141l-0.077,0.756    c-0.04,0.394-0.15,0.763-0.314,1.1c0.084,0.365,0.107,0.753,0.059,1.146l-0.096,0.747c-0.051,0.393-0.17,0.761-0.342,1.092    c0.075,0.368,0.09,0.755,0.03,1.147l-0.114,0.751c-0.062,0.39-0.188,0.753-0.37,1.079c0.067,0.368,0.071,0.756,0.002,1.146    l-0.132,0.742c-0.07,0.391-0.207,0.753-0.396,1.077c0.057,0.369,0.051,0.756-0.027,1.144l-0.152,0.745    c-0.08,0.386-0.227,0.743-0.423,1.061c0.048,0.371,0.032,0.758-0.056,1.145l-0.17,0.739c-0.092,0.385-0.246,0.739-0.451,1.051    c0.039,0.373,0.014,0.758-0.083,1.143l-0.189,0.735c-0.1,0.383-0.264,0.732-0.477,1.04c0.029,0.372-0.006,0.757-0.112,1.138    l-0.207,0.731c-0.109,0.38-0.282,0.725-0.502,1.026c0.02,0.375-0.025,0.759-0.143,1.14l-0.225,0.722    c-0.119,0.38-0.302,0.724-0.532,1.021c0.011,0.377-0.044,0.763-0.17,1.141l-0.243,0.716c-0.129,0.377-0.32,0.716-0.559,1.009    c0.002,0.377-0.063,0.761-0.199,1.136l-0.262,0.71c-0.138,0.372-0.337,0.704-0.58,0.989c-0.009,0.377-0.083,0.758-0.228,1.129    l-0.278,0.702c-0.148,0.37-0.356,0.698-0.608,0.979c-0.018,0.377-0.102,0.756-0.257,1.123l-0.296,0.695    c-0.156,0.364-0.372,0.687-0.63,0.96c-0.027,0.376-0.121,0.753-0.285,1.116l-0.314,0.687c-0.165,0.361-0.389,0.678-0.652,0.944    c-0.037,0.373-0.14,0.748-0.312,1.105l-0.333,0.685c-0.176,0.354-0.406,0.666-0.678,0.924c-0.045,0.374-0.157,0.746-0.34,1.101    l-0.348,0.671c-0.185,0.352-0.424,0.655-0.701,0.908c-0.055,0.372-0.176,0.741-0.366,1.091l-0.362,0.659    c-0.193,0.348-0.44,0.647-0.725,0.893c-0.064,0.37-0.194,0.736-0.395,1.08l-0.378,0.65c-0.202,0.344-0.457,0.638-0.748,0.876    c-0.074,0.37-0.213,0.731-0.422,1.071l-0.393,0.637c-0.21,0.339-0.472,0.626-0.77,0.858c-0.083,0.366-0.23,0.725-0.446,1.058    l-0.414,0.634c-0.218,0.331-0.486,0.609-0.787,0.832c-0.092,0.364-0.248,0.718-0.473,1.045l-0.43,0.626    c-0.227,0.326-0.501,0.598-0.807,0.813c-0.102,0.361-0.268,0.711-0.499,1.033l-0.444,0.611c-0.234,0.32-0.516,0.585-0.826,0.793    c-0.11,0.359-0.285,0.706-0.525,1.023l-0.457,0.597c-0.242,0.314-0.529,0.573-0.849,0.773c-0.118,0.355-0.3,0.697-0.548,1.007    l-0.477,0.593c-0.249,0.306-0.542,0.557-0.863,0.748c-0.127,0.353-0.318,0.689-0.574,0.992l-0.488,0.577    c-0.256,0.301-0.557,0.544-0.883,0.729c-0.137,0.35-0.336,0.681-0.6,0.979l-0.5,0.562c-0.264,0.295-0.57,0.533-0.902,0.709    c-0.145,0.346-0.354,0.673-0.624,0.964l-0.511,0.546c-0.272,0.291-0.586,0.521-0.922,0.689c-0.153,0.341-0.368,0.662-0.645,0.945    l-0.533,0.541c-0.277,0.28-0.594,0.5-0.932,0.659c-0.162,0.339-0.386,0.653-0.67,0.931l-0.541,0.524    c-0.285,0.274-0.607,0.486-0.951,0.639c-0.171,0.334-0.401,0.645-0.693,0.914l-0.552,0.509c-0.293,0.269-0.62,0.474-0.968,0.616    c-0.178,0.328-0.416,0.632-0.713,0.894l-0.57,0.501c-0.299,0.258-0.63,0.454-0.978,0.587c-0.187,0.324-0.435,0.623-0.737,0.878    l-0.58,0.483c-0.305,0.252-0.641,0.44-0.994,0.564c-0.194,0.32-0.447,0.611-0.756,0.858l-0.594,0.471    c-0.311,0.243-0.652,0.423-1.006,0.539c-0.203,0.315-0.463,0.601-0.78,0.84l-0.603,0.453c-0.316,0.238-0.662,0.408-1.02,0.516    c-0.211,0.311-0.479,0.59-0.801,0.821l-0.609,0.436c-0.324,0.229-0.674,0.393-1.036,0.49c-0.216,0.303-0.489,0.574-0.814,0.798    l-0.628,0.425c-0.328,0.221-0.681,0.375-1.044,0.464c-0.226,0.3-0.509,0.566-0.841,0.781l-0.628,0.403    c-0.335,0.213-0.694,0.358-1.06,0.439c-0.234,0.294-0.521,0.552-0.859,0.759l-0.645,0.391c-0.338,0.203-0.698,0.339-1.063,0.41    c-0.239,0.286-0.532,0.536-0.874,0.734l-0.656,0.376c-0.343,0.196-0.707,0.322-1.074,0.385c-0.248,0.281-0.547,0.525-0.895,0.714    l-0.664,0.358c-0.348,0.187-0.714,0.304-1.084,0.357c-0.253,0.275-0.56,0.51-0.91,0.691l-0.672,0.342    c-0.352,0.177-0.72,0.285-1.09,0.329c-0.262,0.269-0.572,0.497-0.929,0.668l-0.675,0.323c-0.357,0.17-0.731,0.271-1.105,0.306    c-0.267,0.262-0.584,0.481-0.943,0.644l-0.682,0.307c-0.363,0.16-0.739,0.25-1.112,0.275c-0.272,0.255-0.595,0.466-0.958,0.619    l-0.691,0.289c-0.367,0.154-0.746,0.234-1.122,0.25c-0.28,0.25-0.609,0.455-0.979,0.6l-0.703,0.273    c-0.369,0.142-0.75,0.213-1.123,0.219c-0.286,0.241-0.619,0.438-0.992,0.573l-0.713,0.258c-0.372,0.133-0.738,0.188-1.127,0.19    c-0.293,0.234-0.631,0.423-1.008,0.55l-0.723,0.238c-0.373,0.123-0.76,0.18-1.128,0.162c-0.298,0.229-0.642,0.407-1.021,0.524    l-0.723,0.22c-0.38,0.113-0.764,0.155-1.136,0.134c-0.306,0.221-0.653,0.392-1.036,0.5l-0.729,0.201    c-0.381,0.104-0.768,0.135-1.139,0.105c-0.308,0.211-0.658,0.373-1.043,0.471l-0.735,0.186c-0.384,0.095-0.77,0.116-1.144,0.076    c-0.315,0.203-0.67,0.357-1.059,0.445l-0.736,0.164c-0.385,0.085-0.771,0.099-1.141,0.049c-0.32,0.196-0.682,0.342-1.071,0.419    l-0.739,0.146c-0.389,0.076-0.774,0.08-1.145,0.02c-0.325,0.188-0.688,0.323-1.08,0.392l-0.74,0.128    c-0.391,0.065-0.778,0.062-1.148-0.009c-0.328,0.18-0.693,0.306-1.086,0.365l-0.746,0.108c-0.391,0.055-0.779,0.04-1.146-0.037    c-0.333,0.171-0.7,0.288-1.095,0.337l-0.748,0.091c-0.396,0.048-0.781,0.021-1.146-0.065c-0.336,0.163-0.707,0.27-1.102,0.309    l-0.754,0.072c-0.394,0.036-0.779,0.001-1.141-0.094c-0.342,0.154-0.717,0.254-1.114,0.282l-0.75,0.053    c-0.394,0.027-0.778-0.018-1.137-0.122c-0.347,0.146-0.724,0.236-1.121,0.256l-0.751,0.034c-0.396,0.016-0.776-0.036-1.133-0.149    c-0.348,0.137-0.727,0.217-1.123,0.227l-0.75,0.017c-0.383,0-0.775-0.056-1.129-0.178c-0.354,0.129-0.736,0.199-1.133,0.199    c-0.016,0-0.039,0-0.064,0l-0.688-0.002c-0.398-0.003-0.777-0.075-1.128-0.206c-0.354,0.121-0.739,0.181-1.133,0.172l-0.753-0.021    c-0.396-0.012-0.773-0.093-1.123-0.232c-0.357,0.11-0.742,0.163-1.137,0.145l-0.75-0.04c-0.398-0.021-0.773-0.112-1.117-0.261    c-0.36,0.104-0.743,0.146-1.141,0.116l-0.756-0.058c-0.395-0.032-0.767-0.132-1.105-0.288c-0.363,0.094-0.748,0.128-1.141,0.088    l-0.755-0.076c-0.394-0.042-0.764-0.151-1.099-0.315c-0.366,0.084-0.753,0.106-1.148,0.06l-0.747-0.096    c-0.394-0.051-0.76-0.17-1.093-0.343c-0.368,0.075-0.755,0.088-1.147,0.031l-0.744-0.113c-0.393-0.062-0.757-0.189-1.085-0.371    c-0.368,0.066-0.755,0.071-1.147,0.002l-0.741-0.132c-0.391-0.07-0.752-0.208-1.075-0.397c-0.371,0.057-0.758,0.054-1.146-0.026    l-0.739-0.15c-0.389-0.08-0.748-0.227-1.066-0.425c-0.373,0.049-0.759,0.032-1.145-0.056l-0.739-0.169    c-0.385-0.092-0.738-0.245-1.051-0.45c-0.374,0.036-0.758,0.013-1.142-0.084l-0.735-0.188c-0.382-0.101-0.731-0.264-1.039-0.477    c-0.373,0.029-0.759-0.005-1.14-0.111l-0.732-0.209c-0.379-0.108-0.724-0.281-1.026-0.501c-0.374,0.021-0.759-0.023-1.139-0.142    l-0.728-0.227c-0.378-0.119-0.719-0.302-1.016-0.53c-0.379,0.012-0.762-0.042-1.14-0.171l-0.717-0.242    c-0.376-0.129-0.715-0.319-1.007-0.558c-0.389,0.005-0.758-0.062-1.132-0.197l-0.715-0.263c-0.372-0.138-0.705-0.338-0.989-0.581    c-0.377-0.007-0.759-0.081-1.13-0.227l-0.702-0.278c-0.37-0.148-0.698-0.355-0.979-0.607c-0.375-0.018-0.753-0.102-1.119-0.255    l-0.694-0.295c-0.368-0.157-0.692-0.373-0.965-0.633c-0.375-0.027-0.751-0.12-1.115-0.284l-0.685-0.311    c-0.363-0.167-0.681-0.391-0.949-0.657c-0.374-0.037-0.748-0.139-1.106-0.312l-0.684-0.332c-0.355-0.175-0.665-0.405-0.923-0.676    c-0.374-0.046-0.745-0.158-1.099-0.339l-0.67-0.346c-0.354-0.186-0.66-0.425-0.912-0.703c-0.374-0.055-0.742-0.176-1.092-0.368    l-0.656-0.36c-0.35-0.192-0.649-0.439-0.896-0.725c-0.37-0.064-0.735-0.194-1.08-0.394l-0.653-0.382    c-0.342-0.2-0.634-0.455-0.872-0.744c-0.369-0.073-0.73-0.212-1.07-0.42l-0.643-0.396c-0.337-0.209-0.624-0.47-0.854-0.767    c-0.367-0.083-0.726-0.23-1.059-0.447l-0.631-0.411c-0.332-0.218-0.611-0.487-0.835-0.788c-0.364-0.092-0.718-0.248-1.046-0.473    l-0.626-0.431c-0.325-0.225-0.596-0.499-0.811-0.805c-0.362-0.101-0.713-0.267-1.036-0.499l-0.608-0.441    c-0.322-0.234-0.588-0.517-0.797-0.829c-0.358-0.109-0.703-0.282-1.019-0.522l-0.601-0.459c-0.315-0.242-0.574-0.529-0.774-0.847    c-0.356-0.119-0.697-0.301-1.009-0.55l-0.587-0.473c-0.309-0.251-0.56-0.544-0.752-0.865c-0.353-0.129-0.689-0.319-0.994-0.575    l-0.574-0.485c-0.303-0.258-0.547-0.558-0.731-0.886c-0.349-0.135-0.68-0.334-0.977-0.597l-0.565-0.501    c-0.295-0.266-0.531-0.571-0.708-0.902c-0.346-0.145-0.672-0.352-0.963-0.621l-0.549-0.514c-0.29-0.271-0.52-0.584-0.688-0.921    c-0.342-0.153-0.663-0.367-0.947-0.646l-0.539-0.529c-0.281-0.278-0.501-0.595-0.661-0.934c-0.338-0.162-0.653-0.384-0.929-0.667    l-0.525-0.542c-0.276-0.286-0.489-0.608-0.64-0.952c-0.334-0.17-0.644-0.4-0.913-0.69l-0.509-0.552    c-0.269-0.293-0.475-0.621-0.619-0.969c-0.33-0.18-0.633-0.418-0.896-0.715l-0.497-0.566c-0.261-0.3-0.457-0.632-0.591-0.981    c-0.325-0.187-0.624-0.434-0.878-0.737l-0.479-0.572c-0.254-0.307-0.444-0.645-0.57-1c-0.319-0.194-0.611-0.446-0.858-0.756    l-0.469-0.591c-0.245-0.312-0.426-0.654-0.542-1.009c-0.314-0.203-0.601-0.463-0.84-0.78l-0.451-0.598    c-0.238-0.318-0.41-0.665-0.518-1.023c-0.309-0.211-0.587-0.477-0.819-0.798l-0.438-0.613c-0.229-0.323-0.392-0.673-0.49-1.034    c-0.304-0.217-0.576-0.49-0.799-0.816l-0.425-0.627c-0.221-0.328-0.374-0.682-0.463-1.044c-0.299-0.226-0.564-0.505-0.779-0.838    l-0.406-0.632c-0.213-0.333-0.358-0.691-0.439-1.058c-0.293-0.232-0.551-0.521-0.758-0.856l-0.391-0.643    c-0.205-0.34-0.341-0.701-0.413-1.069c-0.286-0.238-0.536-0.531-0.735-0.873l-0.375-0.653c-0.196-0.344-0.322-0.707-0.385-1.076    c-0.281-0.246-0.524-0.545-0.714-0.894l-0.36-0.664c-0.187-0.348-0.304-0.714-0.356-1.083c-0.275-0.255-0.512-0.561-0.693-0.914    l-0.339-0.666c-0.179-0.353-0.288-0.723-0.332-1.095c-0.268-0.26-0.497-0.57-0.668-0.928l-0.323-0.673    c-0.171-0.359-0.271-0.732-0.306-1.106c-0.262-0.267-0.482-0.583-0.645-0.945l-0.304-0.676c-0.162-0.364-0.254-0.741-0.279-1.116    c-0.254-0.272-0.466-0.595-0.62-0.959l-0.287-0.686c-0.153-0.367-0.234-0.746-0.251-1.121c-0.247-0.278-0.45-0.605-0.595-0.972    l-0.276-0.709c-0.142-0.369-0.213-0.748-0.22-1.122c-0.242-0.287-0.438-0.62-0.574-0.992l-0.255-0.709    c-0.133-0.374-0.196-0.756-0.193-1.132c-0.234-0.293-0.423-0.63-0.549-1.007l-0.238-0.716c-0.125-0.377-0.176-0.761-0.164-1.134    c-0.226-0.299-0.405-0.64-0.522-1.018l-0.221-0.728c-0.115-0.379-0.157-0.763-0.135-1.136c-0.219-0.304-0.39-0.65-0.497-1.031    l-0.204-0.732c-0.104-0.382-0.137-0.766-0.105-1.138c-0.211-0.309-0.373-0.659-0.471-1.043l-0.185-0.737    c-0.095-0.384-0.117-0.77-0.077-1.141c-0.203-0.315-0.356-0.668-0.445-1.055l-0.166-0.741c-0.085-0.386-0.099-0.771-0.048-1.142    c-0.197-0.32-0.342-0.681-0.42-1.072l-0.146-0.738c-0.076-0.389-0.08-0.774-0.02-1.144c-0.188-0.326-0.323-0.688-0.392-1.08    l-0.128-0.741c-0.066-0.391-0.06-0.778,0.009-1.146c-0.18-0.33-0.307-0.695-0.365-1.088l-0.109-0.753    c-0.056-0.391-0.04-0.774,0.037-1.14c-0.171-0.333-0.288-0.701-0.337-1.095l-0.09-0.748c-0.046-0.395-0.022-0.781,0.065-1.146    c-0.163-0.337-0.27-0.708-0.31-1.102l-0.072-0.755c-0.036-0.395-0.001-0.779,0.095-1.14c-0.155-0.341-0.253-0.714-0.282-1.109    l-0.054-0.756c-0.026-0.396,0.017-0.777,0.123-1.139c-0.146-0.346-0.236-0.723-0.255-1.12l-0.035-0.75    c-0.018-0.396,0.037-0.778,0.15-1.133c-0.137-0.349-0.217-0.727-0.226-1.122l-0.016-0.75c-0.008-0.396,0.056-0.778,0.178-1.133    c-0.129-0.352-0.2-0.732-0.2-1.129h0.869c0,0,0.001-0.001,0.002-0.003h-0.871l0.001-0.75c0.003-0.397,0.075-0.777,0.206-1.129    c-0.12-0.354-0.181-0.736-0.171-1.132l0.02-0.752c0.012-0.397,0.094-0.775,0.233-1.124c-0.111-0.356-0.163-0.74-0.144-1.137    l0.04-0.75c0.021-0.397,0.113-0.774,0.261-1.118c-0.103-0.361-0.146-0.744-0.116-1.14l0.058-0.756    c0.032-0.395,0.133-0.766,0.289-1.106c-0.094-0.361-0.126-0.746-0.088-1.141l0.077-0.754c0.042-0.395,0.151-0.765,0.316-1.101    c-0.085-0.365-0.108-0.752-0.059-1.146l0.094-0.747c0.051-0.393,0.17-0.761,0.343-1.093c-0.076-0.368-0.09-0.754-0.03-1.147    l0.114-0.75c0.062-0.39,0.189-0.752,0.37-1.079c-0.067-0.369-0.07-0.755-0.001-1.146l0.131-0.742    c0.071-0.391,0.208-0.752,0.398-1.076c-0.058-0.371-0.051-0.757,0.027-1.145l0.152-0.744c0.081-0.387,0.226-0.744,0.424-1.062    c-0.049-0.372-0.033-0.758,0.055-1.144l0.17-0.74c0.09-0.385,0.245-0.738,0.45-1.051c-0.039-0.373-0.014-0.758,0.084-1.142    l0.189-0.735c0.1-0.382,0.263-0.732,0.477-1.04c-0.029-0.374,0.005-0.758,0.111-1.139l0.208-0.731    c0.11-0.38,0.282-0.725,0.502-1.027c-0.019-0.374,0.025-0.759,0.142-1.138l0.227-0.728c0.119-0.378,0.301-0.719,0.53-1.016    c-0.011-0.377,0.043-0.762,0.17-1.14l0.243-0.716c0.129-0.377,0.32-0.715,0.558-1.008c-0.002-0.375,0.062-0.757,0.198-1.13    l0.262-0.716c0.139-0.373,0.338-0.705,0.582-0.99c0.008-0.376,0.082-0.757,0.228-1.128l0.278-0.702    c0.148-0.37,0.355-0.697,0.607-0.978c0.017-0.375,0.101-0.754,0.254-1.12l0.295-0.694c0.157-0.368,0.374-0.692,0.633-0.966    c0.027-0.375,0.119-0.751,0.283-1.114l0.312-0.685c0.166-0.363,0.39-0.682,0.656-0.949c0.037-0.375,0.138-0.749,0.311-1.106    l0.333-0.684c0.175-0.355,0.406-0.666,0.677-0.924c0.045-0.374,0.157-0.744,0.338-1.098l0.347-0.67    c0.184-0.353,0.423-0.659,0.702-0.912c0.055-0.372,0.176-0.742,0.367-1.091l0.362-0.658c0.192-0.349,0.439-0.648,0.724-0.893    c0.064-0.371,0.194-0.737,0.394-1.081l0.381-0.654c0.201-0.341,0.454-0.633,0.744-0.871c0.073-0.369,0.212-0.731,0.42-1.07    l0.396-0.643c0.209-0.337,0.47-0.624,0.766-0.854c0.083-0.367,0.231-0.726,0.447-1.06l0.408-0.627    c0.219-0.334,0.488-0.615,0.791-0.84c0.093-0.363,0.249-0.717,0.473-1.045l0.43-0.626c0.226-0.325,0.499-0.596,0.805-0.811    c0.101-0.363,0.266-0.713,0.5-1.036l0.441-0.608c0.234-0.321,0.516-0.588,0.828-0.796c0.11-0.358,0.284-0.704,0.523-1.02    l0.459-0.601c0.242-0.314,0.529-0.573,0.846-0.773c0.119-0.356,0.301-0.697,0.549-1.008l0.473-0.587    c0.25-0.309,0.544-0.56,0.865-0.751c0.127-0.354,0.318-0.691,0.575-0.995l0.486-0.575c0.257-0.302,0.557-0.546,0.884-0.731    c0.136-0.349,0.335-0.68,0.597-0.977l0.499-0.562c0.265-0.296,0.572-0.535,0.904-0.711c0.145-0.346,0.352-0.672,0.622-0.963    l0.513-0.549c0.272-0.29,0.584-0.519,0.92-0.687c0.154-0.342,0.369-0.665,0.646-0.948l0.526-0.536    c0.279-0.283,0.596-0.503,0.935-0.664c0.162-0.337,0.384-0.653,0.668-0.93l0.544-0.528c0.286-0.275,0.607-0.486,0.948-0.637    c0.17-0.334,0.401-0.644,0.692-0.913l0.555-0.512c0.292-0.268,0.619-0.472,0.964-0.615c0.179-0.331,0.417-0.634,0.715-0.897    l0.563-0.495c0.299-0.261,0.632-0.458,0.982-0.592c0.187-0.327,0.434-0.626,0.739-0.881l0.572-0.478    c0.307-0.254,0.645-0.444,1-0.57c0.194-0.32,0.447-0.612,0.757-0.859l0.591-0.469c0.312-0.245,0.652-0.424,1.007-0.541    c0.202-0.314,0.461-0.6,0.777-0.839l0.602-0.455c0.318-0.238,0.664-0.409,1.022-0.517c0.21-0.309,0.477-0.588,0.798-0.82    l0.61-0.437c0.323-0.229,0.674-0.393,1.034-0.491c0.218-0.305,0.492-0.578,0.818-0.801l0.627-0.427    c0.327-0.219,0.681-0.373,1.043-0.463c0.224-0.297,0.504-0.563,0.835-0.777l0.637-0.41c0.332-0.212,0.689-0.357,1.053-0.438    c0.233-0.293,0.521-0.553,0.858-0.759l0.642-0.391c0.339-0.204,0.699-0.341,1.065-0.412c0.24-0.287,0.534-0.538,0.876-0.737    l0.653-0.376c0.343-0.195,0.707-0.322,1.074-0.384c0.247-0.282,0.546-0.525,0.894-0.715l0.66-0.358    c0.349-0.187,0.716-0.305,1.086-0.359c0.253-0.273,0.557-0.509,0.907-0.689l0.673-0.344c0.354-0.179,0.723-0.288,1.094-0.332    c0.26-0.268,0.57-0.494,0.924-0.667l0.679-0.326c0.357-0.17,0.73-0.27,1.103-0.305c0.268-0.263,0.585-0.483,0.946-0.646    l0.679-0.305c0.362-0.162,0.739-0.253,1.112-0.278c0.273-0.255,0.596-0.468,0.961-0.622l0.683-0.287    c0.367-0.154,0.747-0.235,1.122-0.252c0.279-0.248,0.606-0.451,0.973-0.596l0.706-0.275c0.369-0.143,0.749-0.213,1.122-0.221    c0.288-0.242,0.621-0.439,0.995-0.575l0.705-0.255c0.375-0.135,0.764-0.199,1.132-0.193c0.292-0.234,0.628-0.422,1.004-0.549    l0.721-0.24c0.376-0.125,0.762-0.178,1.131-0.164c0.298-0.227,0.641-0.406,1.019-0.523l0.728-0.222    c0.378-0.114,0.76-0.159,1.134-0.135c0.304-0.22,0.651-0.391,1.033-0.499l0.725-0.202c0.384-0.106,0.769-0.137,1.145-0.108    c0.31-0.211,0.66-0.373,1.044-0.471l0.73-0.184c0.385-0.096,0.772-0.119,1.145-0.079c0.314-0.204,0.669-0.358,1.056-0.446    l0.735-0.166c0.389-0.086,0.775-0.099,1.146-0.049c0.319-0.197,0.678-0.341,1.067-0.42l0.745-0.147    c0.387-0.075,0.773-0.08,1.142-0.02c0.324-0.188,0.686-0.323,1.075-0.392l0.748-0.129c0.391-0.066,0.776-0.06,1.145,0.008    c0.33-0.18,0.695-0.307,1.088-0.365l0.745-0.109c0.392-0.057,0.78-0.041,1.146,0.037c0.334-0.171,0.703-0.289,1.097-0.338    l0.749-0.091c0.393-0.046,0.779-0.021,1.143,0.065c0.337-0.164,0.709-0.271,1.104-0.311l0.747-0.072    c0.396-0.038,0.782-0.002,1.146,0.093c0.341-0.154,0.715-0.252,1.11-0.283l0.756-0.054c0.393-0.026,0.777,0.017,1.137,0.123    c0.344-0.146,0.719-0.235,1.114-0.255l0.758-0.036c0.394-0.021,0.776,0.037,1.131,0.149c0.35-0.137,0.727-0.217,1.124-0.227    l0.75-0.016c0.387-0.009,0.779,0.057,1.135,0.179c0.349-0.13,0.729-0.201,1.127-0.201v0.869c0.01,0.009,0.021,0.02,0.031,0.028    l0.012-0.897l0.801,0.001c0.398,0.003,0.777,0.075,1.129,0.207c0.355-0.121,0.734-0.179,1.133-0.172l0.752,0.021    c0.396,0.012,0.775,0.094,1.125,0.233c0.356-0.111,0.738-0.162,1.135-0.144l0.757,0.041c0.395,0.022,0.771,0.113,1.112,0.261    c0.36-0.103,0.743-0.144,1.139-0.116l0.756,0.059c0.395,0.032,0.769,0.132,1.107,0.288c0.363-0.093,0.748-0.127,1.146-0.087    l0.749,0.077c0.393,0.041,0.764,0.152,1.102,0.316c0.363-0.085,0.752-0.109,1.145-0.059l0.748,0.095    c0.393,0.051,0.761,0.17,1.094,0.344c0.366-0.075,0.752-0.089,1.145-0.03l0.744,0.113c0.393,0.062,0.758,0.189,1.086,0.372    c0.369-0.066,0.755-0.07,1.146-0.001l0.747,0.133c0.39,0.071,0.75,0.208,1.072,0.397c0.369-0.058,0.756-0.051,1.145,0.026    l0.744,0.152c0.387,0.082,0.744,0.228,1.062,0.425c0.372-0.048,0.761-0.033,1.148,0.057l0.733,0.17    c0.387,0.089,0.739,0.245,1.053,0.45c0.373-0.039,0.76-0.013,1.146,0.085l0.729,0.188c0.384,0.1,0.734,0.264,1.042,0.478    c0.374-0.029,0.76,0.007,1.142,0.114l0.727,0.207c0.379,0.11,0.725,0.283,1.027,0.503c0.373-0.023,0.758,0.025,1.138,0.142    l0.726,0.227c0.38,0.12,0.722,0.302,1.02,0.532c0.381-0.012,0.762,0.044,1.137,0.17l0.719,0.244    c0.375,0.129,0.714,0.32,1.006,0.559c0.4,0.036,0.761,0.063,1.136,0.199l0.708,0.261c0.373,0.139,0.707,0.339,0.992,0.583    c0.375,0.008,0.756,0.082,1.127,0.227l0.705,0.281c0.37,0.147,0.697,0.356,0.977,0.608c0.376,0.017,0.755,0.101,1.122,0.256    l0.688,0.293c0.369,0.158,0.694,0.375,0.968,0.634c0.376,0.027,0.751,0.121,1.114,0.285l0.682,0.311    c0.363,0.167,0.684,0.392,0.951,0.659c0.373,0.037,0.746,0.138,1.104,0.31l0.684,0.333c0.355,0.175,0.666,0.406,0.925,0.678    c0.373,0.046,0.745,0.157,1.099,0.339l0.67,0.348c0.353,0.184,0.658,0.424,0.91,0.703c0.372,0.055,0.741,0.176,1.09,0.367    l0.663,0.365c0.347,0.192,0.646,0.439,0.891,0.723c0.372,0.065,0.737,0.196,1.081,0.395l0.646,0.378    c0.344,0.202,0.639,0.457,0.877,0.748c0.369,0.074,0.73,0.213,1.07,0.422l0.641,0.395c0.337,0.21,0.625,0.472,0.855,0.769    c0.365,0.083,0.723,0.23,1.056,0.446l0.634,0.414c0.331,0.219,0.611,0.487,0.833,0.788c0.363,0.091,0.717,0.248,1.044,0.472    l0.627,0.431c0.324,0.226,0.596,0.5,0.813,0.807c0.36,0.101,0.71,0.266,1.031,0.498l0.613,0.446    c0.32,0.234,0.584,0.515,0.792,0.826c0.36,0.111,0.706,0.285,1.021,0.525l0.599,0.458c0.314,0.243,0.572,0.53,0.773,0.847    c0.355,0.119,0.697,0.302,1.008,0.551l0.586,0.471c0.309,0.251,0.561,0.545,0.752,0.868c0.352,0.128,0.688,0.318,0.992,0.574    l0.576,0.489c0.303,0.257,0.546,0.557,0.729,0.883c0.35,0.136,0.682,0.335,0.979,0.599l0.564,0.503    c0.296,0.265,0.531,0.57,0.706,0.9c0.346,0.146,0.672,0.354,0.963,0.624l0.549,0.514c0.289,0.271,0.518,0.584,0.686,0.919    c0.342,0.153,0.662,0.369,0.945,0.645l0.539,0.53c0.282,0.279,0.503,0.597,0.662,0.936c0.338,0.162,0.652,0.385,0.93,0.669    l0.521,0.539c0.275,0.287,0.49,0.61,0.641,0.955c0.334,0.17,0.645,0.402,0.914,0.693l0.51,0.552    c0.267,0.293,0.472,0.622,0.615,0.968c0.328,0.178,0.633,0.417,0.895,0.713l0.496,0.567c0.262,0.299,0.457,0.632,0.592,0.983    c0.324,0.187,0.621,0.433,0.876,0.736l0.483,0.58c0.252,0.305,0.44,0.642,0.564,0.994c0.32,0.194,0.611,0.447,0.857,0.756    l0.473,0.595c0.242,0.311,0.422,0.652,0.539,1.007c0.314,0.202,0.599,0.462,0.838,0.778l0.457,0.606    c0.234,0.316,0.404,0.662,0.512,1.019c0.311,0.21,0.59,0.479,0.822,0.801l0.436,0.609c0.229,0.324,0.391,0.674,0.49,1.036    c0.304,0.218,0.576,0.491,0.8,0.819l0.422,0.623c0.221,0.328,0.374,0.682,0.464,1.044c0.299,0.226,0.565,0.508,0.779,0.842    l0.404,0.628c0.213,0.334,0.359,0.692,0.439,1.059c0.293,0.233,0.553,0.521,0.76,0.859l0.389,0.642    c0.205,0.338,0.34,0.699,0.411,1.066c0.288,0.24,0.538,0.533,0.735,0.874l0.378,0.657c0.194,0.343,0.321,0.707,0.384,1.075    c0.28,0.247,0.523,0.546,0.713,0.894l0.358,0.663c0.187,0.348,0.304,0.714,0.356,1.083c0.275,0.253,0.511,0.56,0.691,0.913    l0.341,0.666c0.179,0.353,0.288,0.724,0.331,1.095c0.269,0.261,0.496,0.572,0.668,0.928l0.322,0.673    c0.172,0.359,0.271,0.732,0.307,1.105c0.262,0.267,0.482,0.584,0.645,0.945l0.306,0.682c0.161,0.361,0.252,0.737,0.277,1.111    c0.255,0.273,0.465,0.595,0.618,0.959l0.289,0.686c0.152,0.368,0.234,0.747,0.25,1.123c0.248,0.28,0.451,0.608,0.596,0.976    l0.273,0.704c0.143,0.369,0.214,0.748,0.219,1.121c0.243,0.288,0.439,0.621,0.575,0.994l0.257,0.708    c0.133,0.374,0.195,0.756,0.191,1.131c0.235,0.293,0.423,0.631,0.551,1.007l0.238,0.717c0.123,0.377,0.175,0.759,0.163,1.134    c0.228,0.299,0.406,0.643,0.523,1.022l0.22,0.721c0.113,0.379,0.155,0.763,0.135,1.136c0.219,0.304,0.391,0.65,0.498,1.031    l0.203,0.733c0.104,0.381,0.136,0.766,0.104,1.139c0.212,0.309,0.374,0.659,0.472,1.043l0.184,0.735    c0.096,0.385,0.118,0.77,0.078,1.142c0.203,0.313,0.355,0.668,0.444,1.054l0.167,0.742c0.085,0.386,0.098,0.771,0.049,1.141    c0.194,0.319,0.338,0.677,0.416,1.065l0.148,0.745c0.076,0.389,0.079,0.775,0.021,1.145c0.188,0.325,0.322,0.688,0.392,1.079    l0.127,0.741c0.066,0.391,0.061,0.777-0.008,1.144c0.18,0.331,0.307,0.696,0.366,1.09l0.108,0.746    c0.057,0.393,0.041,0.78-0.037,1.146c0.172,0.334,0.288,0.702,0.337,1.095l0.091,0.747c0.047,0.395,0.021,0.78-0.065,1.145    c0.163,0.338,0.271,0.709,0.312,1.104l0.071,0.755c0.036,0.395,0.001,0.779-0.095,1.141c0.154,0.341,0.252,0.713,0.282,1.108    l0.054,0.756c0.027,0.394-0.018,0.777-0.123,1.136c0.148,0.347,0.238,0.724,0.257,1.122l0.034,0.751    c0.018,0.396-0.036,0.776-0.148,1.133c0.137,0.348,0.217,0.726,0.227,1.122l0.016,0.751c0.008,0.396-0.057,0.777-0.178,1.133    c0.129,0.351,0.199,0.729,0.199,1.128C389.57,274.022,389.57,274.104,389.569,274.131z"/>
</g>
</g>
<g id="Layer_1"/>
</svg>